M48
; DRILL file {KiCad 9.0.7} date 2026-01-29T22:18:11+0530
; FORMAT={-:-/ absolute / inch / decimal}
; #@! TF.CreationDate,2026-01-29T22:18:11+05:30
; #@! TF.GenerationSoftware,Kicad,Pcbnew,9.0.7
; #@! TF.FileFunction,Plated,1,2,PTH
FMAT,2
INCH
; #@! TA.AperFunction,Plated,PTH,ComponentDrill
T1C0.0295
; #@! TA.AperFunction,Plated,PTH,ComponentDrill
T2C0.0315
; #@! TA.AperFunction,Plated,PTH,ComponentDrill
T3C0.0354
; #@! TA.AperFunction,Plated,PTH,ComponentDrill
T4C0.0394
; #@! TA.AperFunction,Plated,PTH,ComponentDrill
T5C0.0433
; #@! TA.AperFunction,Plated,PTH,ComponentDrill
T6C0.0512
%
G90
G05
T1
X5.7Y-4.8516
X5.75Y-4.8516
X5.8Y-4.8516
T2
X5.1Y-4.3343
X5.1Y-4.6
X5.1063Y-4.8362
X5.5Y-4.3343
X5.5Y-4.6
X5.5063Y-4.8362
T3
X5.6894Y-4.2063
X5.75Y-4.5
X5.75Y-4.6
X5.7894Y-4.2063
T4
X4.85Y-4.5
X4.85Y-4.6
X4.85Y-4.7
T5
X6.15Y-5.0
X6.55Y-5.0
T6
X6.1213Y-4.5362
X6.2Y-4.3
X6.2Y-4.7724
X6.6803Y-4.3
X6.6803Y-4.7724
X7.1063Y-4.35
X7.1063Y-4.5469
X7.1063Y-4.7437
M30
