%TF.GenerationSoftware,KiCad,Pcbnew,9.0.7*%
%TF.CreationDate,2026-01-29T22:17:19+05:30*%
%TF.ProjectId,RELAY,52454c41-592e-46b6-9963-61645f706362,rev?*%
%TF.SameCoordinates,Original*%
%TF.FileFunction,Other,User*%
%FSLAX46Y46*%
G04 Gerber Fmt 4.6, Leading zero omitted, Abs format (unit mm)*
G04 Created by KiCad (PCBNEW 9.0.7) date 2026-01-29 22:17:19*
%MOMM*%
%LPD*%
G01*
G04 APERTURE LIST*
%ADD10C,0.050000*%
G04 APERTURE END LIST*
%TO.C,J1*%
D10*
X185000000Y-106990000D02*
X176190000Y-106990000D01*
X176190000Y-123490000D01*
X185000000Y-123490000D01*
X185000000Y-106990000D01*
%TO.C,R1*%
X128490000Y-108590000D02*
X140750000Y-108590000D01*
X140750000Y-111590000D01*
X128490000Y-111590000D01*
X128490000Y-108590000D01*
%TO.C,J2*%
X121440000Y-112530000D02*
X124990000Y-112530000D01*
X121440000Y-121180000D02*
X121440000Y-112530000D01*
X124990000Y-112530000D02*
X124990000Y-121180000D01*
X124990000Y-121180000D02*
X121440000Y-121180000D01*
%TO.C,D3*%
X167720000Y-128600000D02*
X154860000Y-128600000D01*
X154860000Y-125400000D01*
X167720000Y-125400000D01*
X167720000Y-128600000D01*
%TO.C,K2*%
X153680000Y-107120000D02*
X153680000Y-123320000D01*
X153680000Y-123320000D02*
X173480000Y-123320000D01*
X173480000Y-107120000D02*
X153680000Y-107120000D01*
X173480000Y-123320000D02*
X173480000Y-107120000D01*
%TO.C,D1*%
X142840000Y-118780000D02*
X149260000Y-118780000D01*
X149260000Y-112350000D01*
X142840000Y-112350000D01*
X142840000Y-118780000D01*
%TO.C,R3*%
X128650000Y-121340000D02*
X140910000Y-121340000D01*
X140910000Y-124340000D01*
X128650000Y-124340000D01*
X128650000Y-121340000D01*
%TO.C,Q1*%
X143320000Y-121220000D02*
X143320000Y-125960000D01*
X143320000Y-121220000D02*
X148780000Y-121220000D01*
X148780000Y-125960000D02*
X143320000Y-125960000D01*
X148780000Y-125960000D02*
X148780000Y-121220000D01*
%TO.C,R2*%
X128490000Y-115340000D02*
X140750000Y-115340000D01*
X140750000Y-118340000D01*
X128490000Y-118340000D01*
X128490000Y-115340000D01*
%TO.C,D2*%
X148990000Y-110050000D02*
X142560000Y-110050000D01*
X142560000Y-103630000D01*
X148990000Y-103630000D01*
X148990000Y-110050000D01*
%TD*%
M02*
