%TF.GenerationSoftware,KiCad,Pcbnew,9.0.7*%
%TF.CreationDate,2026-01-29T22:17:19+05:30*%
%TF.ProjectId,RELAY,52454c41-592e-46b6-9963-61645f706362,rev?*%
%TF.SameCoordinates,Original*%
%TF.FileFunction,Legend,Top*%
%TF.FilePolarity,Positive*%
%FSLAX46Y46*%
G04 Gerber Fmt 4.6, Leading zero omitted, Abs format (unit mm)*
G04 Created by KiCad (PCBNEW 9.0.7) date 2026-01-29 22:17:19*
%MOMM*%
%LPD*%
G01*
G04 APERTURE LIST*
%ADD10C,0.200000*%
%ADD11C,0.150000*%
%ADD12C,0.120000*%
G04 APERTURE END LIST*
D10*
X173867292Y-125035314D02*
X173581578Y-124892457D01*
X173581578Y-124892457D02*
X173153006Y-124892457D01*
X173153006Y-124892457D02*
X172724435Y-125035314D01*
X172724435Y-125035314D02*
X172438720Y-125321028D01*
X172438720Y-125321028D02*
X172295863Y-125606742D01*
X172295863Y-125606742D02*
X172153006Y-126178171D01*
X172153006Y-126178171D02*
X172153006Y-126606742D01*
X172153006Y-126606742D02*
X172295863Y-127178171D01*
X172295863Y-127178171D02*
X172438720Y-127463885D01*
X172438720Y-127463885D02*
X172724435Y-127749600D01*
X172724435Y-127749600D02*
X173153006Y-127892457D01*
X173153006Y-127892457D02*
X173438720Y-127892457D01*
X173438720Y-127892457D02*
X173867292Y-127749600D01*
X173867292Y-127749600D02*
X174010149Y-127606742D01*
X174010149Y-127606742D02*
X174010149Y-126606742D01*
X174010149Y-126606742D02*
X173438720Y-126606742D01*
X175724435Y-127892457D02*
X175438720Y-127749600D01*
X175438720Y-127749600D02*
X175295863Y-127606742D01*
X175295863Y-127606742D02*
X175153006Y-127321028D01*
X175153006Y-127321028D02*
X175153006Y-126463885D01*
X175153006Y-126463885D02*
X175295863Y-126178171D01*
X175295863Y-126178171D02*
X175438720Y-126035314D01*
X175438720Y-126035314D02*
X175724435Y-125892457D01*
X175724435Y-125892457D02*
X176153006Y-125892457D01*
X176153006Y-125892457D02*
X176438720Y-126035314D01*
X176438720Y-126035314D02*
X176581578Y-126178171D01*
X176581578Y-126178171D02*
X176724435Y-126463885D01*
X176724435Y-126463885D02*
X176724435Y-127321028D01*
X176724435Y-127321028D02*
X176581578Y-127606742D01*
X176581578Y-127606742D02*
X176438720Y-127749600D01*
X176438720Y-127749600D02*
X176153006Y-127892457D01*
X176153006Y-127892457D02*
X175724435Y-127892457D01*
X178010149Y-127892457D02*
X178010149Y-124892457D01*
X178295864Y-126749600D02*
X179153006Y-127892457D01*
X179153006Y-125892457D02*
X178010149Y-127035314D01*
X181724435Y-125892457D02*
X181724435Y-127892457D01*
X180438720Y-125892457D02*
X180438720Y-127463885D01*
X180438720Y-127463885D02*
X180581577Y-127749600D01*
X180581577Y-127749600D02*
X180867292Y-127892457D01*
X180867292Y-127892457D02*
X181295863Y-127892457D01*
X181295863Y-127892457D02*
X181581577Y-127749600D01*
X181581577Y-127749600D02*
X181724435Y-127606742D01*
X183581578Y-127892457D02*
X183295863Y-127749600D01*
X183295863Y-127749600D02*
X183153006Y-127463885D01*
X183153006Y-127463885D02*
X183153006Y-124892457D01*
D11*
X185074819Y-115573333D02*
X185789104Y-115573333D01*
X185789104Y-115573333D02*
X185931961Y-115620952D01*
X185931961Y-115620952D02*
X186027200Y-115716190D01*
X186027200Y-115716190D02*
X186074819Y-115859047D01*
X186074819Y-115859047D02*
X186074819Y-115954285D01*
X186074819Y-114573333D02*
X186074819Y-115144761D01*
X186074819Y-114859047D02*
X185074819Y-114859047D01*
X185074819Y-114859047D02*
X185217676Y-114954285D01*
X185217676Y-114954285D02*
X185312914Y-115049523D01*
X185312914Y-115049523D02*
X185360533Y-115144761D01*
X134453333Y-108174819D02*
X134120000Y-107698628D01*
X133881905Y-108174819D02*
X133881905Y-107174819D01*
X133881905Y-107174819D02*
X134262857Y-107174819D01*
X134262857Y-107174819D02*
X134358095Y-107222438D01*
X134358095Y-107222438D02*
X134405714Y-107270057D01*
X134405714Y-107270057D02*
X134453333Y-107365295D01*
X134453333Y-107365295D02*
X134453333Y-107508152D01*
X134453333Y-107508152D02*
X134405714Y-107603390D01*
X134405714Y-107603390D02*
X134358095Y-107651009D01*
X134358095Y-107651009D02*
X134262857Y-107698628D01*
X134262857Y-107698628D02*
X133881905Y-107698628D01*
X135405714Y-108174819D02*
X134834286Y-108174819D01*
X135120000Y-108174819D02*
X135120000Y-107174819D01*
X135120000Y-107174819D02*
X135024762Y-107317676D01*
X135024762Y-107317676D02*
X134929524Y-107412914D01*
X134929524Y-107412914D02*
X134834286Y-107460533D01*
X122856666Y-121604819D02*
X122856666Y-122319104D01*
X122856666Y-122319104D02*
X122809047Y-122461961D01*
X122809047Y-122461961D02*
X122713809Y-122557200D01*
X122713809Y-122557200D02*
X122570952Y-122604819D01*
X122570952Y-122604819D02*
X122475714Y-122604819D01*
X123285238Y-121700057D02*
X123332857Y-121652438D01*
X123332857Y-121652438D02*
X123428095Y-121604819D01*
X123428095Y-121604819D02*
X123666190Y-121604819D01*
X123666190Y-121604819D02*
X123761428Y-121652438D01*
X123761428Y-121652438D02*
X123809047Y-121700057D01*
X123809047Y-121700057D02*
X123856666Y-121795295D01*
X123856666Y-121795295D02*
X123856666Y-121890533D01*
X123856666Y-121890533D02*
X123809047Y-122033390D01*
X123809047Y-122033390D02*
X123237619Y-122604819D01*
X123237619Y-122604819D02*
X123856666Y-122604819D01*
X160551905Y-129924819D02*
X160551905Y-128924819D01*
X160551905Y-128924819D02*
X160790000Y-128924819D01*
X160790000Y-128924819D02*
X160932857Y-128972438D01*
X160932857Y-128972438D02*
X161028095Y-129067676D01*
X161028095Y-129067676D02*
X161075714Y-129162914D01*
X161075714Y-129162914D02*
X161123333Y-129353390D01*
X161123333Y-129353390D02*
X161123333Y-129496247D01*
X161123333Y-129496247D02*
X161075714Y-129686723D01*
X161075714Y-129686723D02*
X161028095Y-129781961D01*
X161028095Y-129781961D02*
X160932857Y-129877200D01*
X160932857Y-129877200D02*
X160790000Y-129924819D01*
X160790000Y-129924819D02*
X160551905Y-129924819D01*
X161456667Y-128924819D02*
X162075714Y-128924819D01*
X162075714Y-128924819D02*
X161742381Y-129305771D01*
X161742381Y-129305771D02*
X161885238Y-129305771D01*
X161885238Y-129305771D02*
X161980476Y-129353390D01*
X161980476Y-129353390D02*
X162028095Y-129401009D01*
X162028095Y-129401009D02*
X162075714Y-129496247D01*
X162075714Y-129496247D02*
X162075714Y-129734342D01*
X162075714Y-129734342D02*
X162028095Y-129829580D01*
X162028095Y-129829580D02*
X161980476Y-129877200D01*
X161980476Y-129877200D02*
X161885238Y-129924819D01*
X161885238Y-129924819D02*
X161599524Y-129924819D01*
X161599524Y-129924819D02*
X161504286Y-129877200D01*
X161504286Y-129877200D02*
X161456667Y-129829580D01*
X166108095Y-129554819D02*
X166108095Y-128554819D01*
X166679523Y-129554819D02*
X166250952Y-128983390D01*
X166679523Y-128554819D02*
X166108095Y-129126247D01*
X154741905Y-106674819D02*
X154741905Y-105674819D01*
X155313333Y-106674819D02*
X154884762Y-106103390D01*
X155313333Y-105674819D02*
X154741905Y-106246247D01*
X155694286Y-105770057D02*
X155741905Y-105722438D01*
X155741905Y-105722438D02*
X155837143Y-105674819D01*
X155837143Y-105674819D02*
X156075238Y-105674819D01*
X156075238Y-105674819D02*
X156170476Y-105722438D01*
X156170476Y-105722438D02*
X156218095Y-105770057D01*
X156218095Y-105770057D02*
X156265714Y-105865295D01*
X156265714Y-105865295D02*
X156265714Y-105960533D01*
X156265714Y-105960533D02*
X156218095Y-106103390D01*
X156218095Y-106103390D02*
X155646667Y-106674819D01*
X155646667Y-106674819D02*
X156265714Y-106674819D01*
X141424819Y-113768094D02*
X140424819Y-113768094D01*
X140424819Y-113768094D02*
X140424819Y-113529999D01*
X140424819Y-113529999D02*
X140472438Y-113387142D01*
X140472438Y-113387142D02*
X140567676Y-113291904D01*
X140567676Y-113291904D02*
X140662914Y-113244285D01*
X140662914Y-113244285D02*
X140853390Y-113196666D01*
X140853390Y-113196666D02*
X140996247Y-113196666D01*
X140996247Y-113196666D02*
X141186723Y-113244285D01*
X141186723Y-113244285D02*
X141281961Y-113291904D01*
X141281961Y-113291904D02*
X141377200Y-113387142D01*
X141377200Y-113387142D02*
X141424819Y-113529999D01*
X141424819Y-113529999D02*
X141424819Y-113768094D01*
X141424819Y-112244285D02*
X141424819Y-112815713D01*
X141424819Y-112529999D02*
X140424819Y-112529999D01*
X140424819Y-112529999D02*
X140567676Y-112625237D01*
X140567676Y-112625237D02*
X140662914Y-112720475D01*
X140662914Y-112720475D02*
X140710533Y-112815713D01*
X134613333Y-120924819D02*
X134280000Y-120448628D01*
X134041905Y-120924819D02*
X134041905Y-119924819D01*
X134041905Y-119924819D02*
X134422857Y-119924819D01*
X134422857Y-119924819D02*
X134518095Y-119972438D01*
X134518095Y-119972438D02*
X134565714Y-120020057D01*
X134565714Y-120020057D02*
X134613333Y-120115295D01*
X134613333Y-120115295D02*
X134613333Y-120258152D01*
X134613333Y-120258152D02*
X134565714Y-120353390D01*
X134565714Y-120353390D02*
X134518095Y-120401009D01*
X134518095Y-120401009D02*
X134422857Y-120448628D01*
X134422857Y-120448628D02*
X134041905Y-120448628D01*
X134946667Y-119924819D02*
X135565714Y-119924819D01*
X135565714Y-119924819D02*
X135232381Y-120305771D01*
X135232381Y-120305771D02*
X135375238Y-120305771D01*
X135375238Y-120305771D02*
X135470476Y-120353390D01*
X135470476Y-120353390D02*
X135518095Y-120401009D01*
X135518095Y-120401009D02*
X135565714Y-120496247D01*
X135565714Y-120496247D02*
X135565714Y-120734342D01*
X135565714Y-120734342D02*
X135518095Y-120829580D01*
X135518095Y-120829580D02*
X135470476Y-120877200D01*
X135470476Y-120877200D02*
X135375238Y-120924819D01*
X135375238Y-120924819D02*
X135089524Y-120924819D01*
X135089524Y-120924819D02*
X134994286Y-120877200D01*
X134994286Y-120877200D02*
X134946667Y-120829580D01*
X145954761Y-127340057D02*
X145859523Y-127292438D01*
X145859523Y-127292438D02*
X145764285Y-127197200D01*
X145764285Y-127197200D02*
X145621428Y-127054342D01*
X145621428Y-127054342D02*
X145526190Y-127006723D01*
X145526190Y-127006723D02*
X145430952Y-127006723D01*
X145478571Y-127244819D02*
X145383333Y-127197200D01*
X145383333Y-127197200D02*
X145288095Y-127101961D01*
X145288095Y-127101961D02*
X145240476Y-126911485D01*
X145240476Y-126911485D02*
X145240476Y-126578152D01*
X145240476Y-126578152D02*
X145288095Y-126387676D01*
X145288095Y-126387676D02*
X145383333Y-126292438D01*
X145383333Y-126292438D02*
X145478571Y-126244819D01*
X145478571Y-126244819D02*
X145669047Y-126244819D01*
X145669047Y-126244819D02*
X145764285Y-126292438D01*
X145764285Y-126292438D02*
X145859523Y-126387676D01*
X145859523Y-126387676D02*
X145907142Y-126578152D01*
X145907142Y-126578152D02*
X145907142Y-126911485D01*
X145907142Y-126911485D02*
X145859523Y-127101961D01*
X145859523Y-127101961D02*
X145764285Y-127197200D01*
X145764285Y-127197200D02*
X145669047Y-127244819D01*
X145669047Y-127244819D02*
X145478571Y-127244819D01*
X146859523Y-127244819D02*
X146288095Y-127244819D01*
X146573809Y-127244819D02*
X146573809Y-126244819D01*
X146573809Y-126244819D02*
X146478571Y-126387676D01*
X146478571Y-126387676D02*
X146383333Y-126482914D01*
X146383333Y-126482914D02*
X146288095Y-126530533D01*
X134453333Y-114924819D02*
X134120000Y-114448628D01*
X133881905Y-114924819D02*
X133881905Y-113924819D01*
X133881905Y-113924819D02*
X134262857Y-113924819D01*
X134262857Y-113924819D02*
X134358095Y-113972438D01*
X134358095Y-113972438D02*
X134405714Y-114020057D01*
X134405714Y-114020057D02*
X134453333Y-114115295D01*
X134453333Y-114115295D02*
X134453333Y-114258152D01*
X134453333Y-114258152D02*
X134405714Y-114353390D01*
X134405714Y-114353390D02*
X134358095Y-114401009D01*
X134358095Y-114401009D02*
X134262857Y-114448628D01*
X134262857Y-114448628D02*
X133881905Y-114448628D01*
X134834286Y-114020057D02*
X134881905Y-113972438D01*
X134881905Y-113972438D02*
X134977143Y-113924819D01*
X134977143Y-113924819D02*
X135215238Y-113924819D01*
X135215238Y-113924819D02*
X135310476Y-113972438D01*
X135310476Y-113972438D02*
X135358095Y-114020057D01*
X135358095Y-114020057D02*
X135405714Y-114115295D01*
X135405714Y-114115295D02*
X135405714Y-114210533D01*
X135405714Y-114210533D02*
X135358095Y-114353390D01*
X135358095Y-114353390D02*
X134786667Y-114924819D01*
X134786667Y-114924819D02*
X135405714Y-114924819D01*
X145041905Y-111254819D02*
X145041905Y-110254819D01*
X145041905Y-110254819D02*
X145280000Y-110254819D01*
X145280000Y-110254819D02*
X145422857Y-110302438D01*
X145422857Y-110302438D02*
X145518095Y-110397676D01*
X145518095Y-110397676D02*
X145565714Y-110492914D01*
X145565714Y-110492914D02*
X145613333Y-110683390D01*
X145613333Y-110683390D02*
X145613333Y-110826247D01*
X145613333Y-110826247D02*
X145565714Y-111016723D01*
X145565714Y-111016723D02*
X145518095Y-111111961D01*
X145518095Y-111111961D02*
X145422857Y-111207200D01*
X145422857Y-111207200D02*
X145280000Y-111254819D01*
X145280000Y-111254819D02*
X145041905Y-111254819D01*
X145994286Y-110350057D02*
X146041905Y-110302438D01*
X146041905Y-110302438D02*
X146137143Y-110254819D01*
X146137143Y-110254819D02*
X146375238Y-110254819D01*
X146375238Y-110254819D02*
X146470476Y-110302438D01*
X146470476Y-110302438D02*
X146518095Y-110350057D01*
X146518095Y-110350057D02*
X146565714Y-110445295D01*
X146565714Y-110445295D02*
X146565714Y-110540533D01*
X146565714Y-110540533D02*
X146518095Y-110683390D01*
X146518095Y-110683390D02*
X145946667Y-111254819D01*
X145946667Y-111254819D02*
X146565714Y-111254819D01*
D12*
%TO.C,J1*%
X176580000Y-107370000D02*
X184620000Y-107370000D01*
X176580000Y-110190000D02*
X176580000Y-107370000D01*
X176580000Y-123110000D02*
X176580000Y-110790000D01*
X178700000Y-107370000D02*
X178700000Y-108610000D01*
X178700000Y-112370000D02*
X178700000Y-114947000D01*
X178700000Y-116033000D02*
X178700000Y-119947000D01*
X178700000Y-121033000D02*
X178700000Y-123110000D01*
X180000000Y-107370000D02*
X180000000Y-108610000D01*
X180000000Y-112370000D02*
X180000000Y-113678000D01*
X180000000Y-117302000D02*
X180000000Y-118678000D01*
X180000000Y-122302000D02*
X180000000Y-123110000D01*
X181000000Y-107370000D02*
X181000000Y-108610000D01*
X181000000Y-112370000D02*
X181000000Y-113678000D01*
X181000000Y-117302000D02*
X181000000Y-118678000D01*
X181000000Y-122302000D02*
X181000000Y-123110000D01*
X184620000Y-107370000D02*
X184620000Y-123110000D01*
X184620000Y-123110000D02*
X176580000Y-123110000D01*
X176580000Y-110490000D02*
X175970000Y-110930000D01*
X175970000Y-110050000D01*
X176580000Y-110490000D01*
G36*
X176580000Y-110490000D02*
G01*
X175970000Y-110930000D01*
X175970000Y-110050000D01*
X176580000Y-110490000D01*
G37*
%TO.C,R1*%
X130580000Y-110090000D02*
X131350000Y-110090000D01*
X138660000Y-110090000D02*
X137890000Y-110090000D01*
X131350000Y-108720000D02*
X137890000Y-108720000D01*
X137890000Y-111460000D01*
X131350000Y-111460000D01*
X131350000Y-108720000D01*
%TO.C,J2*%
X121860000Y-118110000D02*
X121860000Y-112970000D01*
X121860000Y-120710000D02*
X121860000Y-119380000D01*
X123190000Y-120710000D02*
X121860000Y-120710000D01*
X124520000Y-112970000D02*
X121860000Y-112970000D01*
X124520000Y-118110000D02*
X121860000Y-118110000D01*
X124520000Y-118110000D02*
X124520000Y-112970000D01*
%TO.C,D3*%
X157550000Y-127000000D02*
X158570000Y-127000000D01*
X162990000Y-128470000D02*
X162990000Y-125530000D01*
X163110000Y-128470000D02*
X163110000Y-125530000D01*
X163230000Y-128470000D02*
X163230000Y-125530000D01*
X165030000Y-127000000D02*
X164010000Y-127000000D01*
X164010000Y-128470000D02*
X158570000Y-128470000D01*
X158570000Y-125530000D01*
X164010000Y-125530000D01*
X164010000Y-128470000D01*
%TO.C,K2*%
X153480000Y-121320000D02*
X153480000Y-123520000D01*
X153480000Y-123520000D02*
X155680000Y-123520000D01*
X153880000Y-107320000D02*
X153880000Y-123120000D01*
X153880000Y-123120000D02*
X173280000Y-123120000D01*
X157080000Y-115220000D02*
X159880000Y-115220000D01*
X160380000Y-113170000D02*
X160380000Y-116970000D01*
X160380000Y-116970000D02*
X162380000Y-116970000D01*
X161380000Y-109220000D02*
X158880000Y-109220000D01*
X161380000Y-113170000D02*
X161380000Y-109220000D01*
X161380000Y-116970000D02*
X161380000Y-121220000D01*
X161380000Y-121220000D02*
X158880000Y-121220000D01*
X162380000Y-113170000D02*
X160380000Y-113170000D01*
X162380000Y-114770000D02*
X160380000Y-115770000D01*
X162380000Y-116970000D02*
X162380000Y-113170000D01*
X163880000Y-115220000D02*
X162780000Y-115220000D01*
X163880000Y-115220000D02*
X165680000Y-113420000D01*
X165480000Y-112020000D02*
X165480000Y-113220000D01*
X165480000Y-112020000D02*
X169680000Y-112020000D01*
X165480000Y-118420000D02*
X165480000Y-117220000D01*
X169680000Y-110820000D02*
X169680000Y-112020000D01*
X169680000Y-118420000D02*
X165480000Y-118420000D01*
X169680000Y-119620000D02*
X169680000Y-118420000D01*
X173280000Y-107320000D02*
X153880000Y-107320000D01*
X173280000Y-123120000D02*
X173280000Y-107320000D01*
%TO.C,D1*%
X144505000Y-118130000D02*
X147595000Y-118130000D01*
X144505170Y-118130000D02*
G75*
G02*
X146050000Y-112580000I1544830J2560000D01*
G01*
X146050000Y-112580000D02*
G75*
G02*
X147594830Y-118130000I0J-2990000D01*
G01*
X148550000Y-115570000D02*
G75*
G02*
X143550000Y-115570000I-2500000J0D01*
G01*
X143550000Y-115570000D02*
G75*
G02*
X148550000Y-115570000I2500000J0D01*
G01*
%TO.C,R3*%
X130740000Y-122840000D02*
X131510000Y-122840000D01*
X138820000Y-122840000D02*
X138050000Y-122840000D01*
X131510000Y-121470000D02*
X138050000Y-121470000D01*
X138050000Y-124210000D01*
X131510000Y-124210000D01*
X131510000Y-121470000D01*
%TO.C,Q1*%
X147850000Y-121380000D02*
X144250000Y-121380000D01*
X146050000Y-125830000D02*
G75*
G02*
X144211522Y-121391522I0J2600000D01*
G01*
X147888478Y-121391522D02*
G75*
G02*
X146050000Y-125830001I-1838478J-1838478D01*
G01*
%TO.C,R2*%
X130580000Y-116840000D02*
X131350000Y-116840000D01*
X138660000Y-116840000D02*
X137890000Y-116840000D01*
X131350000Y-115470000D02*
X137890000Y-115470000D01*
X137890000Y-118210000D01*
X131350000Y-118210000D01*
X131350000Y-115470000D01*
%TO.C,D2*%
X148340000Y-108385000D02*
X148340000Y-105295000D01*
X142790000Y-106840000D02*
G75*
G02*
X148340000Y-105295170I2990000J0D01*
G01*
X148340000Y-108384830D02*
G75*
G02*
X142790000Y-106840000I-2560000J1544830D01*
G01*
X148280000Y-106840000D02*
G75*
G02*
X143280000Y-106840000I-2500000J0D01*
G01*
X143280000Y-106840000D02*
G75*
G02*
X148280000Y-106840000I2500000J0D01*
G01*
%TD*%
M02*
