%TF.GenerationSoftware,KiCad,Pcbnew,9.0.7*%
%TF.CreationDate,2026-01-29T22:17:19+05:30*%
%TF.ProjectId,RELAY,52454c41-592e-46b6-9963-61645f706362,rev?*%
%TF.SameCoordinates,Original*%
%TF.FileFunction,Copper,L2,Bot*%
%TF.FilePolarity,Positive*%
%FSLAX46Y46*%
G04 Gerber Fmt 4.6, Leading zero omitted, Abs format (unit mm)*
G04 Created by KiCad (PCBNEW 9.0.7) date 2026-01-29 22:17:19*
%MOMM*%
%LPD*%
G01*
G04 APERTURE LIST*
G04 Aperture macros list*
%AMRoundRect*
0 Rectangle with rounded corners*
0 $1 Rounding radius*
0 $2 $3 $4 $5 $6 $7 $8 $9 X,Y pos of 4 corners*
0 Add a 4 corners polygon primitive as box body*
4,1,4,$2,$3,$4,$5,$6,$7,$8,$9,$2,$3,0*
0 Add four circle primitives for the rounded corners*
1,1,$1+$1,$2,$3*
1,1,$1+$1,$4,$5*
1,1,$1+$1,$6,$7*
1,1,$1+$1,$8,$9*
0 Add four rect primitives between the rounded corners*
20,1,$1+$1,$2,$3,$4,$5,0*
20,1,$1+$1,$4,$5,$6,$7,0*
20,1,$1+$1,$6,$7,$8,$9,0*
20,1,$1+$1,$8,$9,$2,$3,0*%
G04 Aperture macros list end*
%TA.AperFunction,ComponentPad*%
%ADD10RoundRect,0.250001X-1.149999X1.149999X-1.149999X-1.149999X1.149999X-1.149999X1.149999X1.149999X0*%
%TD*%
%TA.AperFunction,ComponentPad*%
%ADD11C,2.800000*%
%TD*%
%TA.AperFunction,ComponentPad*%
%ADD12C,1.600000*%
%TD*%
%TA.AperFunction,ComponentPad*%
%ADD13R,1.700000X1.700000*%
%TD*%
%TA.AperFunction,ComponentPad*%
%ADD14C,1.700000*%
%TD*%
%TA.AperFunction,ComponentPad*%
%ADD15RoundRect,0.249999X0.850001X0.850001X-0.850001X0.850001X-0.850001X-0.850001X0.850001X-0.850001X0*%
%TD*%
%TA.AperFunction,ComponentPad*%
%ADD16C,2.200000*%
%TD*%
%TA.AperFunction,ComponentPad*%
%ADD17C,2.500000*%
%TD*%
%TA.AperFunction,ComponentPad*%
%ADD18RoundRect,0.250000X-1.000000X-1.000000X1.000000X-1.000000X1.000000X1.000000X-1.000000X1.000000X0*%
%TD*%
%TA.AperFunction,ComponentPad*%
%ADD19R,1.800000X1.800000*%
%TD*%
%TA.AperFunction,ComponentPad*%
%ADD20C,1.800000*%
%TD*%
%TA.AperFunction,ComponentPad*%
%ADD21R,1.050000X1.500000*%
%TD*%
%TA.AperFunction,ComponentPad*%
%ADD22O,1.050000X1.500000*%
%TD*%
%TA.AperFunction,Conductor*%
%ADD23C,1.000000*%
%TD*%
%TA.AperFunction,Conductor*%
%ADD24C,3.000000*%
%TD*%
G04 APERTURE END LIST*
D10*
%TO.P,J1,1,Pin_1*%
%TO.N,NC*%
X180500000Y-110490000D03*
D11*
%TO.P,J1,2,Pin_2*%
%TO.N,COM*%
X180500000Y-115490000D03*
%TO.P,J1,3,Pin_3*%
%TO.N,NO*%
X180500000Y-120490000D03*
%TD*%
D12*
%TO.P,R1,1*%
%TO.N,VCC*%
X129540000Y-110090000D03*
%TO.P,R1,2*%
%TO.N,Net-(D2-A)*%
X139700000Y-110090000D03*
%TD*%
D13*
%TO.P,J2,1,Pin_1*%
%TO.N,INPUT*%
X123190000Y-119380000D03*
D14*
%TO.P,J2,2,Pin_2*%
%TO.N,GND*%
X123190000Y-116840000D03*
%TO.P,J2,3,Pin_3*%
%TO.N,VCC*%
X123190000Y-114300000D03*
%TD*%
D15*
%TO.P,D3,1,K*%
%TO.N,VCC*%
X166370000Y-127000000D03*
D16*
%TO.P,D3,2,A*%
%TO.N,Net-(D2-K)*%
X156210000Y-127000000D03*
%TD*%
D17*
%TO.P,K2,11*%
%TO.N,COM*%
X155480000Y-115220000D03*
%TO.P,K2,12*%
%TO.N,NC*%
X169680000Y-109220000D03*
%TO.P,K2,14*%
%TO.N,NO*%
X169680000Y-121220000D03*
D18*
%TO.P,K2,A1*%
%TO.N,VCC*%
X157480000Y-109220000D03*
D17*
%TO.P,K2,A2*%
%TO.N,Net-(D2-K)*%
X157480000Y-121220000D03*
%TD*%
D19*
%TO.P,D1,1,K*%
%TO.N,GND*%
X146050000Y-116840000D03*
D20*
%TO.P,D1,2,A*%
%TO.N,Net-(D1-A)*%
X146050000Y-114300000D03*
%TD*%
D12*
%TO.P,R3,1*%
%TO.N,INPUT*%
X129700000Y-122840000D03*
%TO.P,R3,2*%
%TO.N,Net-(Q1-B)*%
X139860000Y-122840000D03*
%TD*%
D21*
%TO.P,Q1,1,C*%
%TO.N,Net-(D2-K)*%
X147320000Y-123230000D03*
D22*
%TO.P,Q1,2,B*%
%TO.N,Net-(Q1-B)*%
X146050000Y-123230000D03*
%TO.P,Q1,3,E*%
%TO.N,GND*%
X144780000Y-123230000D03*
%TD*%
D12*
%TO.P,R2,1*%
%TO.N,VCC*%
X129540000Y-116840000D03*
%TO.P,R2,2*%
%TO.N,Net-(D1-A)*%
X139700000Y-116840000D03*
%TD*%
D19*
%TO.P,D2,1,K*%
%TO.N,Net-(D2-K)*%
X147050000Y-106840000D03*
D20*
%TO.P,D2,2,A*%
%TO.N,Net-(D2-A)*%
X144510000Y-106840000D03*
%TD*%
D23*
%TO.N,Net-(D1-A)*%
X139700000Y-116840000D02*
X142240000Y-114300000D01*
X142240000Y-114300000D02*
X146050000Y-114300000D01*
%TO.N,Net-(D2-K)*%
X157480000Y-121220000D02*
X157480000Y-125730000D01*
X147050000Y-106840000D02*
X149860000Y-109650000D01*
X149860000Y-109650000D02*
X149860000Y-119380000D01*
X148590000Y-120650000D02*
X148590000Y-121960000D01*
X148590000Y-121960000D02*
X147320000Y-123230000D01*
X157480000Y-125730000D02*
X156210000Y-127000000D01*
X149860000Y-119380000D02*
X148590000Y-120650000D01*
X147320000Y-123230000D02*
X152440000Y-123230000D01*
X152440000Y-123230000D02*
X156210000Y-127000000D01*
%TO.N,Net-(D2-A)*%
X139700000Y-110090000D02*
X141260000Y-110090000D01*
X141260000Y-110090000D02*
X144510000Y-106840000D01*
%TO.N,VCC*%
X166370000Y-124460000D02*
X166370000Y-127000000D01*
X151130000Y-102870000D02*
X137160000Y-102870000D01*
X157480000Y-109220000D02*
X154940000Y-109220000D01*
X157480000Y-109220000D02*
X151130000Y-102870000D01*
X152400000Y-118110000D02*
X153559000Y-119269000D01*
X153559000Y-119269000D02*
X161179000Y-119269000D01*
X130810000Y-116840000D02*
X129540000Y-116840000D01*
X135890000Y-111760000D02*
X130810000Y-116840000D01*
X127000000Y-114300000D02*
X123190000Y-114300000D01*
X154940000Y-109220000D02*
X152400000Y-111760000D01*
X129540000Y-116840000D02*
X127000000Y-114300000D01*
X135890000Y-104140000D02*
X135890000Y-111760000D01*
X152400000Y-111760000D02*
X152400000Y-118110000D01*
X137160000Y-102870000D02*
X135890000Y-104140000D01*
X129540000Y-116840000D02*
X129540000Y-110090000D01*
X161179000Y-119269000D02*
X166370000Y-124460000D01*
D24*
%TO.N,COM*%
X155480000Y-115220000D02*
X180230000Y-115220000D01*
X180230000Y-115220000D02*
X180500000Y-115490000D01*
%TO.N,NO*%
X169680000Y-121220000D02*
X179770000Y-121220000D01*
X179770000Y-121220000D02*
X180500000Y-120490000D01*
%TO.N,NC*%
X169680000Y-109220000D02*
X179230000Y-109220000D01*
X179230000Y-109220000D02*
X180500000Y-110490000D01*
D23*
%TO.N,INPUT*%
X126240000Y-119380000D02*
X129700000Y-122840000D01*
X123190000Y-119380000D02*
X126240000Y-119380000D01*
%TO.N,Net-(Q1-B)*%
X140970000Y-127000000D02*
X143580000Y-127000000D01*
X139860000Y-125890000D02*
X140970000Y-127000000D01*
X143580000Y-127000000D02*
X146050000Y-124530000D01*
X146050000Y-124530000D02*
X146050000Y-123230000D01*
X139860000Y-122840000D02*
X139860000Y-125890000D01*
%TD*%
%TA.AperFunction,Conductor*%
%TO.N,GND*%
G36*
X135857992Y-102120185D02*
G01*
X135903747Y-102172989D01*
X135913691Y-102242147D01*
X135884666Y-102305703D01*
X135878634Y-102312181D01*
X134898036Y-103292778D01*
X134777713Y-103458388D01*
X134731246Y-103549585D01*
X134731245Y-103549584D01*
X134684779Y-103640781D01*
X134684779Y-103640782D01*
X134621523Y-103835461D01*
X134621523Y-103835464D01*
X134589500Y-104037648D01*
X134589500Y-111169953D01*
X134569815Y-111236992D01*
X134553181Y-111257634D01*
X131052181Y-114758634D01*
X130990858Y-114792119D01*
X130921166Y-114787135D01*
X130865233Y-114745263D01*
X130840816Y-114679799D01*
X130840500Y-114670953D01*
X130840500Y-111063237D01*
X130860185Y-110996198D01*
X130864168Y-110990370D01*
X130908870Y-110928845D01*
X131023241Y-110704379D01*
X131101090Y-110464785D01*
X131140500Y-110215962D01*
X131140500Y-109964038D01*
X131101090Y-109715215D01*
X131023241Y-109475621D01*
X131023239Y-109475618D01*
X131023239Y-109475616D01*
X130981747Y-109394184D01*
X130908870Y-109251155D01*
X130811872Y-109117648D01*
X130760798Y-109047350D01*
X130760794Y-109047345D01*
X130582654Y-108869205D01*
X130582649Y-108869201D01*
X130378848Y-108721132D01*
X130378847Y-108721131D01*
X130378845Y-108721130D01*
X130308747Y-108685413D01*
X130154383Y-108606760D01*
X129914785Y-108528910D01*
X129804257Y-108511404D01*
X129665962Y-108489500D01*
X129414038Y-108489500D01*
X129289626Y-108509205D01*
X129165214Y-108528910D01*
X128925616Y-108606760D01*
X128701151Y-108721132D01*
X128497350Y-108869201D01*
X128497345Y-108869205D01*
X128319205Y-109047345D01*
X128319201Y-109047350D01*
X128171132Y-109251151D01*
X128056760Y-109475616D01*
X127978910Y-109715214D01*
X127939500Y-109964038D01*
X127939500Y-110215961D01*
X127978910Y-110464785D01*
X128056760Y-110704383D01*
X128171130Y-110928846D01*
X128191193Y-110956459D01*
X128215817Y-110990352D01*
X128239298Y-111056156D01*
X128239500Y-111063237D01*
X128239500Y-113400953D01*
X128219815Y-113467992D01*
X128167011Y-113513747D01*
X128097853Y-113523691D01*
X128034297Y-113494666D01*
X128027819Y-113488634D01*
X127847221Y-113308036D01*
X127847219Y-113308034D01*
X127681611Y-113187713D01*
X127590158Y-113141116D01*
X127499219Y-113094780D01*
X127441338Y-113075973D01*
X127333916Y-113041069D01*
X127333914Y-113041069D01*
X127304535Y-113031523D01*
X127304533Y-113031522D01*
X127304528Y-113031521D01*
X127132857Y-113004331D01*
X127102352Y-112999500D01*
X127102351Y-112999500D01*
X124248304Y-112999500D01*
X124181265Y-112979815D01*
X124175419Y-112975818D01*
X124055054Y-112888368D01*
X124055053Y-112888367D01*
X124055051Y-112888366D01*
X123982764Y-112851534D01*
X123823576Y-112770422D01*
X123576493Y-112690140D01*
X123319902Y-112649500D01*
X123319897Y-112649500D01*
X123060103Y-112649500D01*
X123060098Y-112649500D01*
X122803506Y-112690140D01*
X122556423Y-112770422D01*
X122324945Y-112888368D01*
X122114774Y-113041066D01*
X122114771Y-113041069D01*
X121931071Y-113224768D01*
X121931066Y-113224774D01*
X121778368Y-113434945D01*
X121660422Y-113666423D01*
X121580140Y-113913506D01*
X121539500Y-114170097D01*
X121539500Y-114429902D01*
X121580140Y-114686493D01*
X121660422Y-114933576D01*
X121778368Y-115165054D01*
X121931066Y-115375225D01*
X121931069Y-115375229D01*
X122114771Y-115558931D01*
X122324949Y-115711634D01*
X122491437Y-115796464D01*
X122522820Y-115819266D01*
X123060591Y-116357037D01*
X122997007Y-116374075D01*
X122882993Y-116439901D01*
X122789901Y-116532993D01*
X122724075Y-116647007D01*
X122707037Y-116710591D01*
X122074728Y-116078282D01*
X122074727Y-116078282D01*
X122035380Y-116132439D01*
X121938904Y-116321782D01*
X121873242Y-116523869D01*
X121873242Y-116523872D01*
X121840000Y-116733753D01*
X121840000Y-116946246D01*
X121873242Y-117156127D01*
X121873242Y-117156130D01*
X121938904Y-117358217D01*
X122035377Y-117547554D01*
X122076963Y-117604792D01*
X122100443Y-117670599D01*
X122084618Y-117738653D01*
X122034512Y-117787348D01*
X122017601Y-117794719D01*
X121990479Y-117804209D01*
X121837737Y-117900184D01*
X121710184Y-118027737D01*
X121614211Y-118180476D01*
X121554631Y-118350745D01*
X121554630Y-118350750D01*
X121539500Y-118485039D01*
X121539500Y-120274960D01*
X121554630Y-120409249D01*
X121554631Y-120409254D01*
X121614211Y-120579523D01*
X121706994Y-120727185D01*
X121710184Y-120732262D01*
X121837738Y-120859816D01*
X121990478Y-120955789D01*
X122160745Y-121015368D01*
X122160750Y-121015369D01*
X122251246Y-121025565D01*
X122295040Y-121030499D01*
X122295043Y-121030500D01*
X122295046Y-121030500D01*
X124084957Y-121030500D01*
X124084958Y-121030499D01*
X124152104Y-121022934D01*
X124219249Y-121015369D01*
X124219252Y-121015368D01*
X124219255Y-121015368D01*
X124389522Y-120955789D01*
X124542262Y-120859816D01*
X124669816Y-120732262D01*
X124669818Y-120732257D01*
X124673865Y-120727185D01*
X124731054Y-120687046D01*
X124770810Y-120680500D01*
X125649953Y-120680500D01*
X125716992Y-120700185D01*
X125737634Y-120716819D01*
X128092223Y-123071408D01*
X128125708Y-123132731D01*
X128127015Y-123139689D01*
X128138909Y-123214783D01*
X128216760Y-123454381D01*
X128331132Y-123678848D01*
X128479201Y-123882649D01*
X128479205Y-123882654D01*
X128657345Y-124060794D01*
X128657350Y-124060798D01*
X128835117Y-124189952D01*
X128861155Y-124208870D01*
X128944168Y-124251167D01*
X129085616Y-124323239D01*
X129085618Y-124323239D01*
X129085621Y-124323241D01*
X129325215Y-124401090D01*
X129574038Y-124440500D01*
X129574039Y-124440500D01*
X129825961Y-124440500D01*
X129825962Y-124440500D01*
X130074785Y-124401090D01*
X130314379Y-124323241D01*
X130538845Y-124208870D01*
X130742656Y-124060793D01*
X130920793Y-123882656D01*
X131068870Y-123678845D01*
X131183241Y-123454379D01*
X131261090Y-123214785D01*
X131300500Y-122965962D01*
X131300500Y-122714038D01*
X131261090Y-122465215D01*
X131183241Y-122225621D01*
X131183239Y-122225618D01*
X131183239Y-122225616D01*
X131126134Y-122113543D01*
X131068870Y-122001155D01*
X130964607Y-121857649D01*
X130920798Y-121797350D01*
X130920794Y-121797345D01*
X130742654Y-121619205D01*
X130742649Y-121619201D01*
X130538848Y-121471132D01*
X130538847Y-121471131D01*
X130538845Y-121471130D01*
X130314379Y-121356759D01*
X130194582Y-121317834D01*
X130074783Y-121278909D01*
X129999689Y-121267015D01*
X129936555Y-121237085D01*
X129931408Y-121232223D01*
X127087221Y-118388036D01*
X127087219Y-118388034D01*
X126921611Y-118267713D01*
X126806124Y-118208870D01*
X126739219Y-118174780D01*
X126633716Y-118140500D01*
X126544535Y-118111523D01*
X126544532Y-118111522D01*
X126389220Y-118086923D01*
X126342352Y-118079500D01*
X126342351Y-118079500D01*
X124770810Y-118079500D01*
X124703771Y-118059815D01*
X124673865Y-118032815D01*
X124669816Y-118027738D01*
X124542262Y-117900184D01*
X124389519Y-117804208D01*
X124362399Y-117794719D01*
X124305623Y-117753997D01*
X124279876Y-117689044D01*
X124293333Y-117620483D01*
X124303037Y-117604791D01*
X124344622Y-117547555D01*
X124441095Y-117358217D01*
X124506757Y-117156130D01*
X124506757Y-117156127D01*
X124540000Y-116946246D01*
X124540000Y-116733753D01*
X124506757Y-116523872D01*
X124506757Y-116523869D01*
X124441095Y-116321782D01*
X124344624Y-116132449D01*
X124305270Y-116078282D01*
X124305269Y-116078282D01*
X123672962Y-116710589D01*
X123655925Y-116647007D01*
X123590099Y-116532993D01*
X123497007Y-116439901D01*
X123382993Y-116374075D01*
X123319409Y-116357037D01*
X123857178Y-115819266D01*
X123888559Y-115796466D01*
X124055051Y-115711634D01*
X124108241Y-115672989D01*
X124175419Y-115624182D01*
X124241225Y-115600702D01*
X124248304Y-115600500D01*
X126409953Y-115600500D01*
X126476992Y-115620185D01*
X126497634Y-115636819D01*
X127932223Y-117071408D01*
X127965708Y-117132731D01*
X127967015Y-117139689D01*
X127978909Y-117214783D01*
X128003349Y-117290000D01*
X128056759Y-117454379D01*
X128166928Y-117670599D01*
X128171132Y-117678848D01*
X128319201Y-117882649D01*
X128319205Y-117882654D01*
X128497344Y-118060793D01*
X128497350Y-118060798D01*
X128639647Y-118164182D01*
X128701155Y-118208870D01*
X128816641Y-118267713D01*
X128925616Y-118323239D01*
X128925618Y-118323239D01*
X128925621Y-118323241D01*
X129165215Y-118401090D01*
X129414038Y-118440500D01*
X129414039Y-118440500D01*
X129665961Y-118440500D01*
X129665962Y-118440500D01*
X129914785Y-118401090D01*
X130154379Y-118323241D01*
X130378845Y-118208870D01*
X130440353Y-118164181D01*
X130506158Y-118140702D01*
X130513238Y-118140500D01*
X130912351Y-118140500D01*
X130912352Y-118140500D01*
X131114535Y-118108477D01*
X131261290Y-118060793D01*
X131309219Y-118045220D01*
X131400414Y-117998753D01*
X131491611Y-117952287D01*
X131657219Y-117831966D01*
X132775147Y-116714038D01*
X138099500Y-116714038D01*
X138099500Y-116965961D01*
X138138910Y-117214785D01*
X138216760Y-117454383D01*
X138264234Y-117547554D01*
X138326928Y-117670599D01*
X138331132Y-117678848D01*
X138479201Y-117882649D01*
X138479205Y-117882654D01*
X138657344Y-118060793D01*
X138657350Y-118060798D01*
X138799647Y-118164182D01*
X138861155Y-118208870D01*
X138976641Y-118267713D01*
X139085616Y-118323239D01*
X139085618Y-118323239D01*
X139085621Y-118323241D01*
X139325215Y-118401090D01*
X139574038Y-118440500D01*
X139574039Y-118440500D01*
X139825961Y-118440500D01*
X139825962Y-118440500D01*
X140074785Y-118401090D01*
X140314379Y-118323241D01*
X140538845Y-118208870D01*
X140742656Y-118060793D01*
X140920793Y-117882656D01*
X141068870Y-117678845D01*
X141183241Y-117454379D01*
X141261090Y-117214785D01*
X141272984Y-117139687D01*
X141282100Y-117120457D01*
X141286624Y-117099662D01*
X141301168Y-117080233D01*
X141302911Y-117076557D01*
X141307757Y-117071426D01*
X142742366Y-115636819D01*
X142803689Y-115603334D01*
X142830047Y-115600500D01*
X144564385Y-115600500D01*
X144631424Y-115620185D01*
X144677179Y-115672989D01*
X144687123Y-115742147D01*
X144680567Y-115767833D01*
X144656403Y-115832619D01*
X144656401Y-115832627D01*
X144650000Y-115892155D01*
X144650000Y-116590000D01*
X145674722Y-116590000D01*
X145630667Y-116666306D01*
X145600000Y-116780756D01*
X145600000Y-116899244D01*
X145630667Y-117013694D01*
X145674722Y-117090000D01*
X144650000Y-117090000D01*
X144650000Y-117787844D01*
X144656401Y-117847372D01*
X144656403Y-117847379D01*
X144706645Y-117982086D01*
X144706649Y-117982093D01*
X144792809Y-118097187D01*
X144792812Y-118097190D01*
X144907906Y-118183350D01*
X144907913Y-118183354D01*
X145042620Y-118233596D01*
X145042627Y-118233598D01*
X145102155Y-118239999D01*
X145102172Y-118240000D01*
X145800000Y-118240000D01*
X145800000Y-117215277D01*
X145876306Y-117259333D01*
X145990756Y-117290000D01*
X146109244Y-117290000D01*
X146223694Y-117259333D01*
X146300000Y-117215277D01*
X146300000Y-118240000D01*
X146997828Y-118240000D01*
X146997844Y-118239999D01*
X147057372Y-118233598D01*
X147057379Y-118233596D01*
X147192086Y-118183354D01*
X147192093Y-118183350D01*
X147307187Y-118097190D01*
X147307190Y-118097187D01*
X147393350Y-117982093D01*
X147393354Y-117982086D01*
X147443596Y-117847379D01*
X147443598Y-117847372D01*
X147449999Y-117787844D01*
X147450000Y-117787827D01*
X147450000Y-117090000D01*
X146425278Y-117090000D01*
X146469333Y-117013694D01*
X146500000Y-116899244D01*
X146500000Y-116780756D01*
X146469333Y-116666306D01*
X146425278Y-116590000D01*
X147450000Y-116590000D01*
X147450000Y-115892172D01*
X147449999Y-115892155D01*
X147443598Y-115832627D01*
X147443596Y-115832620D01*
X147393354Y-115697913D01*
X147393352Y-115697910D01*
X147313729Y-115591549D01*
X147289311Y-115526085D01*
X147304162Y-115457812D01*
X147325316Y-115429554D01*
X147331247Y-115423624D01*
X147466948Y-115246774D01*
X147578405Y-115053726D01*
X147663710Y-114847781D01*
X147721404Y-114632463D01*
X147750500Y-114411457D01*
X147750500Y-114188543D01*
X147721404Y-113967537D01*
X147663710Y-113752219D01*
X147578405Y-113546274D01*
X147466948Y-113353226D01*
X147368379Y-113224768D01*
X147331248Y-113176377D01*
X147331242Y-113176370D01*
X147173629Y-113018757D01*
X147173622Y-113018751D01*
X146996782Y-112883058D01*
X146996780Y-112883057D01*
X146996774Y-112883052D01*
X146803726Y-112771595D01*
X146803722Y-112771593D01*
X146597790Y-112686293D01*
X146597783Y-112686291D01*
X146597781Y-112686290D01*
X146382463Y-112628596D01*
X146382457Y-112628595D01*
X146382452Y-112628594D01*
X146161466Y-112599501D01*
X146161463Y-112599500D01*
X146161457Y-112599500D01*
X145938543Y-112599500D01*
X145938537Y-112599500D01*
X145938533Y-112599501D01*
X145717547Y-112628594D01*
X145717540Y-112628595D01*
X145717537Y-112628596D01*
X145639522Y-112649500D01*
X145502219Y-112686290D01*
X145502209Y-112686293D01*
X145296277Y-112771593D01*
X145296273Y-112771595D01*
X145103226Y-112883052D01*
X145103217Y-112883058D01*
X144984861Y-112973876D01*
X144919692Y-112999070D01*
X144909375Y-112999500D01*
X142137648Y-112999500D01*
X142113329Y-113003351D01*
X141935465Y-113031522D01*
X141740776Y-113094781D01*
X141558386Y-113187715D01*
X141392786Y-113308028D01*
X141392782Y-113308032D01*
X139468590Y-115232223D01*
X139407267Y-115265708D01*
X139400309Y-115267015D01*
X139325217Y-115278909D01*
X139085618Y-115356760D01*
X138861151Y-115471132D01*
X138657350Y-115619201D01*
X138657345Y-115619205D01*
X138479205Y-115797345D01*
X138479201Y-115797350D01*
X138331132Y-116001151D01*
X138216760Y-116225616D01*
X138138910Y-116465214D01*
X138099500Y-116714038D01*
X132775147Y-116714038D01*
X136881966Y-112607219D01*
X137002287Y-112441611D01*
X137048753Y-112350414D01*
X137095220Y-112259219D01*
X137158477Y-112064534D01*
X137190500Y-111862352D01*
X137190500Y-104730047D01*
X137210185Y-104663008D01*
X137226819Y-104642366D01*
X137662366Y-104206819D01*
X137723689Y-104173334D01*
X137750047Y-104170500D01*
X149736000Y-104170500D01*
X149803039Y-104190185D01*
X149848794Y-104242989D01*
X149860000Y-104294500D01*
X149860000Y-107511453D01*
X149840315Y-107578492D01*
X149787511Y-107624247D01*
X149718353Y-107634191D01*
X149654797Y-107605166D01*
X149648319Y-107599134D01*
X148786819Y-106737634D01*
X148753334Y-106676311D01*
X148750500Y-106649953D01*
X148750500Y-105895043D01*
X148750499Y-105895039D01*
X148735369Y-105760750D01*
X148735368Y-105760745D01*
X148719843Y-105716376D01*
X148675789Y-105590478D01*
X148579816Y-105437738D01*
X148452262Y-105310184D01*
X148299523Y-105214211D01*
X148129254Y-105154631D01*
X148129249Y-105154630D01*
X147994960Y-105139500D01*
X147994954Y-105139500D01*
X146105046Y-105139500D01*
X146105039Y-105139500D01*
X145970750Y-105154630D01*
X145970745Y-105154631D01*
X145800476Y-105214211D01*
X145647737Y-105310184D01*
X145647736Y-105310185D01*
X145573563Y-105384357D01*
X145512240Y-105417842D01*
X145442548Y-105412856D01*
X145423883Y-105404062D01*
X145263733Y-105311598D01*
X145263722Y-105311593D01*
X145057790Y-105226293D01*
X145057783Y-105226291D01*
X145057781Y-105226290D01*
X144842463Y-105168596D01*
X144842457Y-105168595D01*
X144842452Y-105168594D01*
X144621466Y-105139501D01*
X144621463Y-105139500D01*
X144621457Y-105139500D01*
X144398543Y-105139500D01*
X144398537Y-105139500D01*
X144398533Y-105139501D01*
X144177547Y-105168594D01*
X144177540Y-105168595D01*
X144177537Y-105168596D01*
X144007299Y-105214211D01*
X143962219Y-105226290D01*
X143962209Y-105226293D01*
X143756277Y-105311593D01*
X143756273Y-105311595D01*
X143563226Y-105423052D01*
X143563217Y-105423058D01*
X143386377Y-105558751D01*
X143386370Y-105558757D01*
X143228757Y-105716370D01*
X143228751Y-105716377D01*
X143093058Y-105893217D01*
X143093052Y-105893226D01*
X142981595Y-106086273D01*
X142981593Y-106086277D01*
X142896293Y-106292209D01*
X142896290Y-106292219D01*
X142838597Y-106507534D01*
X142838595Y-106507545D01*
X142819122Y-106655454D01*
X142790855Y-106719350D01*
X142783864Y-106726949D01*
X140759016Y-108751798D01*
X140697693Y-108785283D01*
X140628001Y-108780299D01*
X140598449Y-108764435D01*
X140538845Y-108721130D01*
X140314383Y-108606760D01*
X140074785Y-108528910D01*
X139964257Y-108511404D01*
X139825962Y-108489500D01*
X139574038Y-108489500D01*
X139449626Y-108509205D01*
X139325214Y-108528910D01*
X139085616Y-108606760D01*
X138861151Y-108721132D01*
X138657350Y-108869201D01*
X138657345Y-108869205D01*
X138479205Y-109047345D01*
X138479201Y-109047350D01*
X138331132Y-109251151D01*
X138216760Y-109475616D01*
X138138910Y-109715214D01*
X138099500Y-109964038D01*
X138099500Y-110215961D01*
X138138910Y-110464785D01*
X138216760Y-110704383D01*
X138331132Y-110928848D01*
X138479201Y-111132649D01*
X138479205Y-111132654D01*
X138657344Y-111310793D01*
X138657350Y-111310798D01*
X138799647Y-111414182D01*
X138861155Y-111458870D01*
X139004184Y-111531747D01*
X139085616Y-111573239D01*
X139085618Y-111573239D01*
X139085621Y-111573241D01*
X139325215Y-111651090D01*
X139574038Y-111690500D01*
X139574039Y-111690500D01*
X139825961Y-111690500D01*
X139825962Y-111690500D01*
X140074785Y-111651090D01*
X140314379Y-111573241D01*
X140538845Y-111458870D01*
X140600353Y-111414181D01*
X140666158Y-111390702D01*
X140673238Y-111390500D01*
X141362351Y-111390500D01*
X141362352Y-111390500D01*
X141564535Y-111358477D01*
X141711290Y-111310793D01*
X141759219Y-111295220D01*
X141850414Y-111248753D01*
X141941611Y-111202287D01*
X142107219Y-111081966D01*
X144623050Y-108566133D01*
X144684371Y-108532650D01*
X144694539Y-108530877D01*
X144842463Y-108511404D01*
X145057781Y-108453710D01*
X145263726Y-108368405D01*
X145423885Y-108275936D01*
X145491783Y-108259464D01*
X145557810Y-108282316D01*
X145573565Y-108295643D01*
X145647738Y-108369816D01*
X145800478Y-108465789D01*
X145930838Y-108511404D01*
X145970745Y-108525368D01*
X145970750Y-108525369D01*
X146061246Y-108535565D01*
X146105040Y-108540499D01*
X146105043Y-108540500D01*
X146105046Y-108540500D01*
X146859953Y-108540500D01*
X146926992Y-108560185D01*
X146947634Y-108576819D01*
X148523181Y-110152366D01*
X148556666Y-110213689D01*
X148559500Y-110240047D01*
X148559500Y-118789953D01*
X148539815Y-118856992D01*
X148523181Y-118877634D01*
X147598036Y-119802778D01*
X147477713Y-119968388D01*
X147431246Y-120059585D01*
X147431245Y-120059584D01*
X147384779Y-120150781D01*
X147384779Y-120150782D01*
X147321523Y-120345461D01*
X147321523Y-120345464D01*
X147289500Y-120547648D01*
X147289500Y-121369953D01*
X147269815Y-121436992D01*
X147253181Y-121457634D01*
X147067634Y-121643181D01*
X147006311Y-121676666D01*
X146979953Y-121679500D01*
X146750039Y-121679500D01*
X146615746Y-121694631D01*
X146615745Y-121694631D01*
X146506338Y-121732913D01*
X146436559Y-121736474D01*
X146427068Y-121733802D01*
X146360391Y-121712138D01*
X146360392Y-121712138D01*
X146154324Y-121679500D01*
X146154319Y-121679500D01*
X145945681Y-121679500D01*
X145945676Y-121679500D01*
X145739610Y-121712137D01*
X145541179Y-121776612D01*
X145355285Y-121871330D01*
X145275223Y-121929500D01*
X145186495Y-121993965D01*
X145186492Y-121993967D01*
X145182554Y-121996829D01*
X145181671Y-121995614D01*
X145123980Y-122021446D01*
X145083051Y-122020198D01*
X145030000Y-122009645D01*
X145030000Y-122113543D01*
X145010315Y-122180582D01*
X145006318Y-122186429D01*
X144916330Y-122310285D01*
X144821612Y-122496179D01*
X144771931Y-122649082D01*
X144732493Y-122706757D01*
X144668134Y-122733955D01*
X144599288Y-122722040D01*
X144547812Y-122674796D01*
X144530000Y-122610763D01*
X144530000Y-122009646D01*
X144529999Y-122009645D01*
X144481022Y-122019388D01*
X144481015Y-122019390D01*
X144294486Y-122096652D01*
X144294473Y-122096659D01*
X144126600Y-122208829D01*
X144126596Y-122208832D01*
X143983832Y-122351596D01*
X143983829Y-122351600D01*
X143871659Y-122519473D01*
X143871652Y-122519486D01*
X143794390Y-122706016D01*
X143794387Y-122706025D01*
X143755000Y-122904041D01*
X143755000Y-122980000D01*
X144499670Y-122980000D01*
X144479925Y-122999745D01*
X144430556Y-123085255D01*
X144405000Y-123180630D01*
X144405000Y-123279370D01*
X144430556Y-123374745D01*
X144479925Y-123460255D01*
X144499670Y-123480000D01*
X143755000Y-123480000D01*
X143755000Y-123555958D01*
X143794387Y-123753974D01*
X143794390Y-123753983D01*
X143871652Y-123940513D01*
X143871659Y-123940526D01*
X143983829Y-124108399D01*
X143983832Y-124108403D01*
X144126596Y-124251167D01*
X144126600Y-124251170D01*
X144218598Y-124312642D01*
X144263403Y-124366254D01*
X144272110Y-124435579D01*
X144241955Y-124498607D01*
X144237388Y-124503425D01*
X143077634Y-125663181D01*
X143016311Y-125696666D01*
X142989953Y-125699500D01*
X141560047Y-125699500D01*
X141493008Y-125679815D01*
X141472366Y-125663181D01*
X141196819Y-125387634D01*
X141163334Y-125326311D01*
X141160500Y-125299953D01*
X141160500Y-123813237D01*
X141180185Y-123746198D01*
X141184168Y-123740370D01*
X141228870Y-123678845D01*
X141343241Y-123454379D01*
X141421090Y-123214785D01*
X141460500Y-122965962D01*
X141460500Y-122714038D01*
X141421090Y-122465215D01*
X141343241Y-122225621D01*
X141343239Y-122225618D01*
X141343239Y-122225616D01*
X141286134Y-122113543D01*
X141228870Y-122001155D01*
X141124607Y-121857649D01*
X141080798Y-121797350D01*
X141080794Y-121797345D01*
X140902654Y-121619205D01*
X140902649Y-121619201D01*
X140698848Y-121471132D01*
X140698847Y-121471131D01*
X140698845Y-121471130D01*
X140628747Y-121435413D01*
X140474383Y-121356760D01*
X140234785Y-121278910D01*
X140234779Y-121278909D01*
X139985962Y-121239500D01*
X139734038Y-121239500D01*
X139609626Y-121259205D01*
X139485214Y-121278910D01*
X139245616Y-121356760D01*
X139021151Y-121471132D01*
X138817350Y-121619201D01*
X138817345Y-121619205D01*
X138639205Y-121797345D01*
X138639201Y-121797350D01*
X138491132Y-122001151D01*
X138376760Y-122225616D01*
X138325694Y-122382781D01*
X138298910Y-122465215D01*
X138259500Y-122714038D01*
X138259500Y-122965962D01*
X138276201Y-123071408D01*
X138298910Y-123214785D01*
X138376760Y-123454383D01*
X138491130Y-123678846D01*
X138511193Y-123706459D01*
X138535817Y-123740352D01*
X138559298Y-123806156D01*
X138559500Y-123813237D01*
X138559500Y-125992351D01*
X138591522Y-126194534D01*
X138654781Y-126389223D01*
X138701246Y-126480414D01*
X138747713Y-126571611D01*
X138868034Y-126737219D01*
X140122781Y-127991966D01*
X140288389Y-128112287D01*
X140379585Y-128158753D01*
X140470781Y-128205220D01*
X140568123Y-128236848D01*
X140665465Y-128268477D01*
X140867648Y-128300500D01*
X140867649Y-128300500D01*
X143682351Y-128300500D01*
X143682352Y-128300500D01*
X143884535Y-128268477D01*
X143981876Y-128236848D01*
X144079219Y-128205220D01*
X144170414Y-128158753D01*
X144261611Y-128112287D01*
X144427219Y-127991966D01*
X147041966Y-125377219D01*
X147162286Y-125211611D01*
X147163928Y-125208389D01*
X147255220Y-125029219D01*
X147308194Y-124866182D01*
X147347632Y-124808506D01*
X147411990Y-124781308D01*
X147426125Y-124780500D01*
X147889957Y-124780500D01*
X147889958Y-124780499D01*
X147957104Y-124772934D01*
X148024249Y-124765369D01*
X148024252Y-124765368D01*
X148024255Y-124765368D01*
X148194522Y-124705789D01*
X148347262Y-124609816D01*
X148390259Y-124566819D01*
X148451582Y-124533334D01*
X148477940Y-124530500D01*
X149736000Y-124530500D01*
X149803039Y-124550185D01*
X149848794Y-124602989D01*
X149860000Y-124654500D01*
X149860000Y-130185500D01*
X149840315Y-130252539D01*
X149787511Y-130298294D01*
X149736000Y-130309500D01*
X121274500Y-130309500D01*
X121207461Y-130289815D01*
X121161706Y-130237011D01*
X121150500Y-130185500D01*
X121150500Y-102224500D01*
X121170185Y-102157461D01*
X121222989Y-102111706D01*
X121274500Y-102100500D01*
X135790953Y-102100500D01*
X135857992Y-102120185D01*
G37*
%TD.AperFunction*%
%TD*%
M02*
